<svg xmlns="http://www.w3.org/2000/svg" width="1200" height="520" viewBox="0 0 1200 520" role="img" aria-labelledby="title desc"><title id="title">Posicionamento dos sensores</title><desc id="desc">Sensores no ar, na solução, na plataforma e no piso.</desc><rect width="1200" height="520" fill="#071411"/><text x="55" y="55" fill="#52e6a3" font-family="sans-serif" font-size="25" font-weight="700">ETAPA 06 · POSIÇÃO, CABO E TESTE BRUTO</text><g font-family="sans-serif" text-anchor="middle"><g transform="translate(65 105)"><rect width="240" height="305" rx="18" fill="#10261f" stroke="#1d3a31"/><text x="120" y="42" fill="#fff" font-size="21">1 · Ar e folha</text><circle cx="82" cy="160" r="32" fill="#62d9df"/><path d="M145 208c55-80 55-80 25-110-55 10-80 55-25 110z" fill="#52e6a3"/><text x="120" y="280" fill="#8eb0a4" font-size="17">sombra · sem jato direto</text></g><g transform="translate(345 105)"><rect width="240" height="305" rx="18" fill="#10261f" stroke="#1d3a31"/><text x="120" y="42" fill="#fff" font-size="21">2 · Solução</text><path d="M55 100h130l-15 150H70z" fill="#164c48" stroke="#58a6ff" stroke-width="5"/><path d="M105 75v145M140 75v145" stroke="#ffc866" stroke-width="9"/><text x="120" y="280" fill="#8eb0a4" font-size="17">imersão correta · sem bolha</text></g><g transform="translate(625 105)"><rect width="240" height="305" rx="18" fill="#10261f" stroke="#1d3a31"/><text x="120" y="42" fill="#fff" font-size="21">3 · Massa e nível</text><rect x="50" y="205" width="140" height="20" fill="#62d9df"/><path d="M75 100h90l-8 105H83z" fill="#164c48" stroke="#52e6a3" stroke-width="4"/><text x="120" y="280" fill="#8eb0a4" font-size="17">sem apoiar tubo no tanque</text></g><g transform="translate(905 105)"><rect width="240" height="305" rx="18" fill="#10261f" stroke="#1d3a31"/><text x="120" y="42" fill="#fff" font-size="21">4 · Vazamento</text><path d="M42 228h156" stroke="#62d9df" stroke-width="12"/><circle cx="120" cy="210" r="24" fill="#ff7a7a"/><path d="M120 82c-25 40-38 59-38 84a38 38 0 0076 0c0-25-13-44-38-84z" fill="#58a6ff"/><text x="120" y="280" fill="#8eb0a4" font-size="17">ponto mais baixo da contenção</text></g></g><text x="600" y="476" text-anchor="middle" fill="#ffc866" font-family="sans-serif" font-size="18">Teste cada desconexão: qualidade deve mudar e qualquer saída dependente deve desligar</text></svg>
