<svg xmlns="http://www.w3.org/2000/svg" width="1200" height="520" viewBox="0 0 1200 520" role="img" aria-labelledby="title desc"><title id="title">Quadro SELV desenergizado</title><desc id="desc">Sequência de trilho, controladores, chicotes e ensaios sem corrente alternada.</desc><rect width="1200" height="520" fill="#071411"/><text x="55" y="55" fill="#52e6a3" font-family="sans-serif" font-size="25" font-weight="700">ETAPA 07 · QUADRO SELV · SEM REDE CA</text><g font-family="sans-serif" text-anchor="middle"><g transform="translate(60 110)"><rect width="250" height="290" rx="18" fill="#10261f" stroke="#1d3a31"/><text x="125" y="42" fill="#fff" font-size="21">1 · Trilhos e zonas</text><path d="M40 125h170M40 195h170" stroke="#8eb0a4" stroke-width="9"/><path d="M125 75v170" stroke="#ff7a7a" stroke-width="3" stroke-dasharray="8 7"/><text x="125" y="262" fill="#8eb0a4" font-size="17">separação visível</text></g><g transform="translate(340 110)"><rect width="250" height="290" rx="18" fill="#10261f" stroke="#1d3a31"/><text x="125" y="42" fill="#fff" font-size="21">2 · Módulos</text><rect x="40" y="95" width="70" height="120" fill="#164c48" stroke="#52e6a3"/><rect x="140" y="95" width="70" height="120" fill="#164c48" stroke="#62d9df"/><text x="125" y="262" fill="#8eb0a4" font-size="17">etiqueta e revisão</text></g><g transform="translate(620 110)"><rect width="250" height="290" rx="18" fill="#10261f" stroke="#1d3a31"/><text x="125" y="42" fill="#fff" font-size="21">3 · Chicotes</text><path d="M38 115h70v100h-70M212 115h-70v100h70" fill="none" stroke="#62d9df" stroke-width="8"/><circle cx="125" cy="165" r="38" fill="#164c48" stroke="#ffc866" stroke-width="5"/><text x="125" y="262" fill="#8eb0a4" font-size="17">polaridade ponta a ponta</text></g><g transform="translate(900 110)"><rect width="250" height="290" rx="18" fill="#10261f" stroke="#1d3a31"/><text x="125" y="42" fill="#fff" font-size="21">4 · Medir</text><path d="M62 212a72 72 0 01126 0" fill="none" stroke="#52e6a3" stroke-width="10"/><path d="M125 212l40-55" stroke="#ffc866" stroke-width="7"/><text x="125" y="262" fill="#8eb0a4" font-size="17">curto · continuidade · PE</text></g></g><text x="600" y="475" text-anchor="middle" fill="#ffc866" font-family="sans-serif" font-size="18">Não conectar a tomada · fontes e placa continuam A0/HOLD até inspeção física</text></svg>
